<svg width="16" height="12" viewBox="0 0 16 12" fill="none" xmlns="http://www.w3.org/2000/svg">
<path fill-rule="evenodd" clip-rule="evenodd" d="M0.567242 5.79902C0.519578 5.93071 0.519578 6.06929 0.567242 6.20098C0.915373 7.16287 2.70608 11.25 8.00004 11.25C13.294 11.25 15.0847 7.16287 15.4328 6.20098C15.4805 6.06929 15.4805 5.93071 15.4328 5.79902C15.0847 4.83713 13.294 0.75 8.00004 0.75C2.70608 0.75 0.915373 4.83713 0.567242 5.79902ZM2.18246 5.82459C2.1296 5.93559 2.1296 6.06441 2.18246 6.17541V6.17541C2.37405 6.57775 2.68152 7.11518 3.13893 7.64881C4.02725 8.68519 5.50706 9.75 8.00004 9.75C10.493 9.75 11.9728 8.68519 12.8612 7.64881C13.3186 7.11518 13.626 6.57775 13.8176 6.17541V6.17541C13.8705 6.06441 13.8705 5.93559 13.8176 5.82459V5.82459C13.626 5.42225 13.3186 4.88482 12.8612 4.35119C11.9728 3.31481 10.493 2.25 8.00004 2.25C5.50706 2.25 4.02725 3.31481 3.13893 4.35119C2.68152 4.88482 2.37405 5.42225 2.18246 5.82459V5.82459Z" fill="#7C838D"/>
<path d="M10.25 6C10.25 7.24264 9.24268 8.25 8.00004 8.25C6.7574 8.25 5.75004 7.24264 5.75004 6C5.75004 4.75736 6.7574 3.75 8.00004 3.75C9.24268 3.75 10.25 4.75736 10.25 6Z" fill="#7C838D"/>
</svg>
