<svg width="21" height="21" viewBox="0 0 21 21" fill="none" xmlns="http://www.w3.org/2000/svg">
<path d="M12.32 20.5H8.67998C8.21009 20.5 7.80353 20.173 7.70298 19.714L7.29598 17.83C6.75303 17.5921 6.2382 17.2946 5.76098 16.943L3.92398 17.528C3.47598 17.6709 2.98897 17.4823 2.75398 17.075L0.929979 13.924C0.697567 13.5165 0.777638 13.0025 1.12298 12.685L2.54798 11.385C2.48318 10.7961 2.48318 10.2019 2.54798 9.613L1.12298 8.316C0.777129 7.99837 0.697027 7.48372 0.929979 7.076L2.74998 3.923C2.98497 3.5157 3.47198 3.32714 3.91998 3.47L5.75698 4.055C6.00104 3.87416 6.25511 3.70722 6.51798 3.555C6.77032 3.41269 7.03002 3.28385 7.29598 3.169L7.70398 1.287C7.80405 0.827969 8.21017 0.500494 8.67998 0.5H12.32C12.7898 0.500494 13.1959 0.827969 13.296 1.287L13.708 3.17C13.9888 3.29352 14.2622 3.43308 14.527 3.588C14.7739 3.73081 15.0126 3.88739 15.242 4.057L17.08 3.472C17.5277 3.32967 18.0141 3.51816 18.249 3.925L20.069 7.078C20.3014 7.48548 20.2213 7.99951 19.876 8.317L18.451 9.617C18.5158 10.2059 18.5158 10.8001 18.451 11.389L19.876 12.689C20.2213 13.0065 20.3014 13.5205 20.069 13.928L18.249 17.081C18.0141 17.4878 17.5277 17.6763 17.08 17.534L15.242 16.949C15.0094 17.1203 14.7677 17.2789 14.518 17.424C14.2558 17.5759 13.9854 17.7131 13.708 17.835L13.296 19.714C13.1955 20.1726 12.7895 20.4996 12.32 20.5ZM6.11998 14.729L6.93998 15.329C7.12483 15.4652 7.31749 15.5904 7.51698 15.704C7.70468 15.8127 7.89795 15.9115 8.09598 16L9.02898 16.409L9.48598 18.5H11.516L11.973 16.408L12.906 15.999C13.3133 15.8194 13.6999 15.5961 14.059 15.333L14.88 14.733L16.921 15.383L17.936 13.625L16.353 12.182L16.465 11.17C16.5142 10.7274 16.5142 10.2806 16.465 9.838L16.353 8.826L17.937 7.38L16.921 5.621L14.88 6.271L14.059 5.671C13.6998 5.40671 13.3132 5.18175 12.906 5L11.973 4.591L11.516 2.5H9.48598L9.02698 4.592L8.09598 5C7.89779 5.08704 7.7045 5.18486 7.51698 5.293C7.31872 5.40633 7.12707 5.53086 6.94298 5.666L6.12198 6.266L4.08198 5.616L3.06498 7.38L4.64798 8.821L4.53598 9.834C4.48678 10.2766 4.48678 10.7234 4.53598 11.166L4.64798 12.178L3.06498 13.621L4.07998 15.379L6.11998 14.729ZM10.496 14.5C8.28684 14.5 6.49598 12.7091 6.49598 10.5C6.49598 8.29086 8.28684 6.5 10.496 6.5C12.7051 6.5 14.496 8.29086 14.496 10.5C14.4932 12.708 12.704 14.4972 10.496 14.5ZM10.496 8.5C9.40337 8.50111 8.51387 9.37885 8.49821 10.4713C8.48255 11.5638 9.34654 12.4667 10.4387 12.4991C11.5308 12.5315 12.4468 11.6815 12.496 10.59V10.99V10.5C12.496 9.39543 11.6005 8.5 10.496 8.5Z" fill="#AAB0B9"/>
</svg>
