<svg width="35" height="35" viewBox="0 0 35 35" fill="none" xmlns="http://www.w3.org/2000/svg">
<path fill-rule="evenodd" clip-rule="evenodd" d="M23.9687 7.04687V5.07812H22.2812V7.04687H18.4375V8.73437H19.5442C19.7526 9.86156 20.3734 10.7195 21.1578 11.3665C20.0167 11.6498 18.9488 11.7344 18.4375 11.7344V13.4219C19.2862 13.4219 21.2744 13.2429 23.0828 12.5211L23.125 12.5041L23.1672 12.5211C24.9756 13.2429 26.9638 13.4219 27.8125 13.4219V11.7344C27.3012 11.7344 26.2333 11.6498 25.0922 11.3665C25.8766 10.7195 26.4974 9.86156 26.7058 8.73437H27.8125V7.04687H23.9687ZM23.125 10.6503C22.2149 10.1782 21.5519 9.55616 21.2854 8.73437H24.9646C24.6981 9.55616 24.0351 10.1782 23.125 10.6503Z" fill="white"/>
<path fill-rule="evenodd" clip-rule="evenodd" d="M10.0231 24.1344L10.5629 22.476H13.1872L13.727 24.1344H15.3747L12.8676 16.8616H10.886L8.3754 24.1344H10.0231ZM10.9535 21.2757L11.8484 18.5236H11.9052L12.8001 21.2757H10.9535Z" fill="white"/>
<path fill-rule="evenodd" clip-rule="evenodd" d="M30.625 0.625C32.6961 0.625 34.375 2.30393 34.375 4.375V23.0354L27.2077 17.875H23.125V25.375C23.125 27.4461 21.4461 29.125 19.375 29.125L7.79228 29.125L0.625 34.2854V15.625C0.625 13.5539 2.30393 11.875 4.375 11.875H11.875V4.375C11.875 2.30393 13.5539 0.625 15.625 0.625H30.625ZM15.625 14.125L27.2077 14.125C27.9941 14.125 28.7607 14.3722 29.3989 14.8317L30.625 15.7146V4.375H15.625V14.125ZM12.187 15.625H4.375V26.9646L5.60113 26.0817C6.23934 25.6222 7.00586 25.375 7.79228 25.375L19.375 25.375V17.875H15.625C14.0873 17.875 12.7657 16.9494 12.187 15.625Z" fill="white"/>

</svg>
