<svg width="22" height="21" viewBox="0 0 22 21" fill="none" xmlns="http://www.w3.org/2000/svg">
<path d="M13 20.9999H3.00001C2.46408 21.0186 1.94448 20.8138 1.5653 20.4347C1.18611 20.0555 0.981385 19.5359 1.00001 18.9999V8.99995C0.981385 8.46402 1.18611 7.94442 1.5653 7.56524C1.94448 7.18605 2.46408 6.98132 3.00001 6.99995H7.00001V2.99995C6.98138 2.46402 7.18611 1.94442 7.5653 1.56524C7.94448 1.18605 8.46408 0.981324 9.00001 0.999948H19C19.5359 0.981324 20.0555 1.18605 20.4347 1.56524C20.8139 1.94442 21.0186 2.46402 21 2.99995V12.9999C21.0183 13.5358 20.8135 14.0552 20.4344 14.4343C20.0553 14.8134 19.5358 15.0183 19 14.9999H15V18.9999C15.0183 19.5358 14.8135 20.0552 14.4344 20.4343C14.0553 20.8134 13.5358 21.0183 13 20.9999ZM3.00001 8.99995V18.9999H13V14.9999H9.00001C8.46417 15.0183 7.94474 14.8134 7.56563 14.4343C7.18651 14.0552 6.98169 13.5358 7.00001 12.9999V8.99995H3.00001ZM9.00001 2.99995V12.9999H19V2.99995H9.00001Z" fill="#0083C7"/>
</svg>
